File Name

Furry Vengeance 2010 1080p BRRip H264.mp4

File Size
Format : MPEG-4
Format profile : Base Media
Codec ID : isom
File size : 3.69 GiB
Duration : 1h 31mn
Overall bit rate : 5 786 Kbps

Video
ID : 1
Format : AVC
Format/Info : Advanced Video Codec
Format profile : High@L4.1
Format settings, CABAC : Yes
Format settings, ReFrames : 3 frames
Codec ID : avc1
Codec ID/Info : Advanced Video Coding
Duration : 1h 31mn
Bit rate mode : Variable
Bit rate : 5 149 Kbps
Maximum bit rate : 26.7 Mbps
Width : 1 920 pixels
Height : 1 080 pixels
Display aspect ratio : 16:9
Frame rate mode : Constant
Frame rate : 23.976 fps
Resolution : 24 bits
Colorimetry : 4:2:0
Scan type : Progressive
Bits/(Pixel*Frame) : 0.104
Stream size : 3.28 GiB (89%)

Audio #1
ID : 2
Format : AAC
Format/Info : Advanced Audio Codec
Format version : Version 4
Format profile : LC
Format settings, SBR : No
Codec ID : 40
Duration : 1h 31mn
Bit rate mode : Variable
Bit rate : 192 Kbps
Maximum bit rate : 199 Kbps
Channel(s) : 2 channels
Channel positions : L R
Sampling rate : 48.0 KHz
Resolution : 16 bits
Stream size : 125 MiB (3%)

Audio #2
ID : 3
Format : AAC
Format/Info : Advanced Audio Codec
Format version : Version 4
Format profile : LC
Format settings, SBR : No
Codec ID : 40
Duration : 1h 31mn
Bit rate mode : Variable
Bit rate : 448 Kbps
Maximum bit rate : 466 Kbps
Channel(s) : 6 channels
Channel positions : Front: L C R, Rear: L R, LFE
Sampling rate : 48.0 KHz
Resolution : 16 bits
Stream size : 292 MiB (8%)

English SRT : ----

Language : English

  
http://www.imdb.com/title/tt0492389/

Release Date: 30 April 2010 (USA) 

Genre: Comedy | Family 

Plot: n the Oregon wilderness, a real estate developer\'s new housing subdivision faces a unique group of protesters, local woodland creatures who don\'t want their homes disturbed.

Cast: 
Brendan Fraser ... Dan Sanders
Ricky Garcia ... Frank
Eugene Cordero ... Cheese
Patrice O\'Neal ... Gus
Jim Norton ... Hank
Brooke Shields ... Tammy Sanders
Matt Prokop ... Tyler Sanders
Billy Bush ... Drill Sergeant
Ken Jeong ... Neal Lyman
Angela Kinsey ... Felder
Samantha Bee ... Principal Baker
Alice Drummond ... Mrs. Martin
Toby Huss ... Wilson
Skyler Samuels ... Amber
Gerry Bednob ... Mr. Gupta		